<svg xmlns="http://www.w3.org/2000/svg" width="24" height="24" viewBox="0 0 24 24" fill="none">
<path d="M6.34296 17.657L4.92896 19.071M6.34296 6.34299L4.92896 4.92899M17.657 6.34299L19.071 4.92899M17.657 17.657L19.071 19.071M4 12H2M12 4V2M20 12H22M12 20V22M14.828 14.828C15.2101 14.459 15.5148 14.0176 15.7244 13.5296C15.9341 13.0416 16.0444 12.5167 16.049 11.9856C16.0537 11.4545 15.9525 10.9278 15.7513 10.4362C15.5502 9.94459 15.2532 9.49798 14.8776 9.12241C14.502 8.74684 14.0554 8.44983 13.5639 8.2487C13.0723 8.04758 12.5456 7.94637 12.0144 7.95099C11.4833 7.9556 10.9584 8.06595 10.4704 8.27558C9.98241 8.48522 9.54103 8.78995 9.17204 9.17199C8.44341 9.9264 8.04023 10.9368 8.04935 11.9856C8.05846 13.0344 8.47914 14.0376 9.22077 14.7793C9.9624 15.5209 10.9656 15.9416 12.0144 15.9507C13.0632 15.9598 14.0736 15.5566 14.828 14.828Z" stroke="blueviolet" stroke-width="2" stroke-linecap="round" stroke-linejoin="round"/>
</svg>