<svg xmlns="http://www.w3.org/2000/svg" width="24" height="24" viewBox="0 0 24 24" fill="none">
<path d="M5 19H19C19.3263 18.9977 19.6471 18.9156 19.9344 18.7609C20.2217 18.6061 20.4667 18.3835 20.6482 18.1123C20.8297 17.841 20.942 17.5296 20.9754 17.205C21.0089 16.8804 20.9624 16.5525 20.84 16.25L13.74 4.00002C13.567 3.68741 13.3135 3.42685 13.0058 3.2454C12.698 3.06396 12.3473 2.96826 11.99 2.96826C11.6327 2.96826 11.282 3.06396 10.9742 3.2454C10.6665 3.42685 10.413 3.68741 10.24 4.00002L3.14 16.25C3.01994 16.5456 2.97233 16.8656 3.00115 17.1833C3.02997 17.501 3.13437 17.8073 3.30565 18.0764C3.47693 18.3456 3.71011 18.5698 3.98573 18.7305C4.26134 18.8912 4.57139 18.9836 4.89 19" stroke="black" stroke-width="2" stroke-linecap="round" stroke-linejoin="round"/>
</svg>